<svg id="logo" data-name="Layer 1" xmlns="http://www.w3.org/2000/svg" fill="#fff" width="180px" viewBox="0 0 878 241"><defs><style>.cls-1{fill:#61d836;}</style></defs><path d="M63.82,18.14l31.73,93.29h.38l30-93.29h42V153.8H140V57.66h-.38L106.38,153.8h-23L50.14,58.61h-.38V153.8H21.83V18.14Z"></path><path d="M188.08,83.4A44.92,44.92,0,0,1,214.3,56.61a56.14,56.14,0,0,1,20.9-3.7,56.86,56.86,0,0,1,21,3.7A44.75,44.75,0,0,1,282.51,83.4a60.24,60.24,0,0,1,3.61,21.38,59.49,59.49,0,0,1-3.61,21.28,45.92,45.92,0,0,1-10.26,16.24,44.68,44.68,0,0,1-16.05,10.36,58.34,58.34,0,0,1-21,3.61,57.6,57.6,0,0,1-20.9-3.61,45,45,0,0,1-16-10.36,46.21,46.21,0,0,1-10.26-16.24,59.71,59.71,0,0,1-3.61-21.28A60.47,60.47,0,0,1,188.08,83.4Zm24.51,32.87a30.47,30.47,0,0,0,3.9,10.07,20.72,20.72,0,0,0,7.31,7.13,22.36,22.36,0,0,0,11.4,2.66,22.93,22.93,0,0,0,11.5-2.66,20.6,20.6,0,0,0,7.41-7.13A30.68,30.68,0,0,0,258,116.27a57.48,57.48,0,0,0,1.14-11.49A58.93,58.93,0,0,0,258,93.19a29.67,29.67,0,0,0-3.89-10.07A21.65,21.65,0,0,0,246.7,76a22.33,22.33,0,0,0-11.5-2.75,20.71,20.71,0,0,0-18.71,9.88,29.48,29.48,0,0,0-3.9,10.07,58.93,58.93,0,0,0-1.14,11.59A57.48,57.48,0,0,0,212.59,116.27Z"></path><path d="M353.76,55.57V73.62H334v48.64q0,6.84,2.28,9.12t9.12,2.28c1.52,0,3-.07,4.37-.19a39.9,39.9,0,0,0,4-.57v20.9a64.84,64.84,0,0,1-7.6.76c-2.79.12-5.51.19-8.17.19a78.61,78.61,0,0,1-11.87-.86,28.11,28.11,0,0,1-9.88-3.32,17.66,17.66,0,0,1-6.75-7Q307,139,307,131.57V73.62H290.68V55.57H307V26.12h27V55.57Z"></path><path d="M363.64,83.4a44.92,44.92,0,0,1,26.22-26.79,56.07,56.07,0,0,1,20.9-3.7,56.85,56.85,0,0,1,21,3.7A44.73,44.73,0,0,1,458.07,83.4a60.47,60.47,0,0,1,3.61,21.38,59.71,59.71,0,0,1-3.61,21.28,46.21,46.21,0,0,1-10.26,16.24,44.81,44.81,0,0,1-16.06,10.36,58.33,58.33,0,0,1-21,3.61,57.52,57.52,0,0,1-20.9-3.61,44.83,44.83,0,0,1-16-10.36,45.92,45.92,0,0,1-10.26-16.24A59.49,59.49,0,0,1,360,104.78,60.24,60.24,0,0,1,363.64,83.4Zm24.51,32.87A30.68,30.68,0,0,0,392,126.34a20.83,20.83,0,0,0,7.32,7.13,22.36,22.36,0,0,0,11.4,2.66,22.87,22.87,0,0,0,11.49-2.66,20.44,20.44,0,0,0,7.41-7.13,30.47,30.47,0,0,0,3.9-10.07,57.48,57.48,0,0,0,1.14-11.49,58.93,58.93,0,0,0-1.14-11.59,29.48,29.48,0,0,0-3.9-10.07A21.47,21.47,0,0,0,422.25,76a22.26,22.26,0,0,0-11.49-2.75A20.74,20.74,0,0,0,392,83.12a29.67,29.67,0,0,0-3.89,10.07A58.93,58.93,0,0,0,387,104.78,57.48,57.48,0,0,0,388.15,116.27Z"></path><path d="M501.2,55.57V73.81h.38a32.89,32.89,0,0,1,5.13-8.46,33.71,33.71,0,0,1,7.41-6.65,36.14,36.14,0,0,1,8.93-4.27,32,32,0,0,1,9.88-1.52,20.85,20.85,0,0,1,5.89,1V78.94c-1.27-.26-2.79-.48-4.56-.67a48.33,48.33,0,0,0-5.13-.28,28.7,28.7,0,0,0-12.54,2.47,21.66,21.66,0,0,0-8.27,6.74,27,27,0,0,0-4.46,10,54.07,54.07,0,0,0-1.33,12.35V153.8h-27V55.57Z"></path><path d="M627.36,153.8l-20-78.09H607L587.27,153.8H569.79L538.25,55.57h17.86l22.23,80.37h.38l19.76-80.37h17.67l20.52,80.37h.38l22-80.37h16.72L644.46,153.8Z"></path><path d="M774.61,153.38q-4.18,2.51-11.59,2.51-6.27,0-10-3.52t-3.71-11.49a38.56,38.56,0,0,1-15.48,11.49,53.44,53.44,0,0,1-31.73,2,29.55,29.55,0,0,1-10.36-4.75,22.83,22.83,0,0,1-6.93-8.46,28.41,28.41,0,0,1-2.57-12.63q0-8.37,2.85-13.68a24.83,24.83,0,0,1,7.51-8.65,34.49,34.49,0,0,1,10.64-5q6-1.71,12.25-2.85,6.65-1.33,12.64-2a69.07,69.07,0,0,0,10.54-1.9,17.43,17.43,0,0,0,7.22-3.61q2.66-2.37,2.66-6.93a16.1,16.1,0,0,0-2-8.55,13.63,13.63,0,0,0-5.13-4.94,20.91,20.91,0,0,0-7-2.28,53.23,53.23,0,0,0-7.7-.57q-10.26,0-17.1,3.89t-7.41,14.73H686.07a34.84,34.84,0,0,1,3.8-15.39A28.86,28.86,0,0,1,699,60.6,38.38,38.38,0,0,1,712,55a68.67,68.67,0,0,1,15.67-1.71,91.1,91.1,0,0,1,13.21,1,34.49,34.49,0,0,1,11.87,3.88,22.71,22.71,0,0,1,8.55,8.25q3.23,5.31,3.23,13.84v50.43a37.15,37.15,0,0,0,.67,8.34q.66,2.66,4.46,2.66a16.11,16.11,0,0,0,4.94-.95Zm-26.22-50.5a20,20,0,0,1-8,3.32q-4.93,1-10.35,1.71t-10.93,1.52a40,40,0,0,0-9.88,2.76,17.89,17.89,0,0,0-7.12,5.41c-1.84,2.35-2.76,5.54-2.76,9.6a13.06,13.06,0,0,0,1.62,6.74,13.38,13.38,0,0,0,4.18,4.47,17.58,17.58,0,0,0,6,2.47,33.65,33.65,0,0,0,7.22.76,38.18,38.18,0,0,0,13.68-2.19,28.63,28.63,0,0,0,9.31-5.51,21.59,21.59,0,0,0,5.32-7.22,18.21,18.21,0,0,0,1.71-7.31Z"></path><path d="M824.58,166.91A102.89,102.89,0,0,1,819,179.07a33,33,0,0,1-6.08,8.07,20.52,20.52,0,0,1-7.41,4.56,28.44,28.44,0,0,1-9.4,1.43,43.66,43.66,0,0,1-5.7-.38,27.52,27.52,0,0,1-5.51-1.33V176.6a27,27,0,0,0,4.85,1.61,20.55,20.55,0,0,0,4.65.67,13.91,13.91,0,0,0,8.27-2.38,14.55,14.55,0,0,0,5-6.74l6.65-16.53-39-97.66h18.24l28.69,80.37h.38l27.55-80.37h17.1Z"></path><rect class="cls-1" x="19.65" y="208.36" width="526.15" height="20"></rect></svg>